Coordinates
version=1
nRows=18
nColumns=19
inDegrees=yes

Units are S.I. units (second, meters, Newtons, ...)
If the header above contains a line with 'inDegrees', this indicates whether rotational values are in degrees (yes) or radians (no).

endheader
time	pelvis_tilt	pelvis_list	pelvis_rotation	pelvis_tx	pelvis_ty	pelvis_tz	hip_flexion_r	hip_adduction_r	hip_rotation_r	knee_angle_r	knee_angle_r_beta	ankle_angle_r	hip_flexion_l	hip_adduction_l	hip_rotation_l	knee_angle_l	knee_angle_l_beta	ankle_angle_l
     17.12000000	     -4.50019064	      6.56693834	      5.17751825	      2.36910342	      0.95844328	      0.96285393	     -9.18948155	     -4.88447489	     -6.54971761	     49.96450920	      0.87204519	    -10.99672307	     23.12060255	     10.23074479	     -6.58408852	     22.66893858	      0.39564762	      5.04211009
     17.12666667	     -4.04116543	      6.86670432	      5.57758363	      2.36849629	      0.95355160	      0.96225983	     -8.33968432	     -5.43013626	     -6.69732802	     53.54813351	      0.93459124	    -10.29635209	     23.15079678	     10.54584754	     -6.61800255	     25.69764345	      0.44850849	      7.64633485
     17.13333333	     -3.60403902	      7.14978136	      5.92106638	      2.36776821	      0.94850869	      0.96165899	     -7.38588470	     -6.05556502	     -6.88604936	     57.10915065	      0.99674271	     -9.59812112	     23.15311864	     10.86008682	     -6.47466983	     28.75103957	      0.50180030	     10.39598041
     17.14000000	     -3.15562679	      7.39109982	      6.16972720	      2.36690664	      0.94345611	      0.96107053	     -6.36148449	     -6.71983566	     -7.02142695	     60.61216373	      1.05788182	     -8.84493371	     23.06787638	     11.13913523	     -6.19677688	     31.72663610	      0.55373426	     13.16751140
     17.14666667	     -2.75687711	      7.61976985	      6.31934004	      2.36588762	      0.93848518	      0.96049243	     -5.18902011	     -7.45700616	     -7.07812932	     64.04690201	      1.11782932	     -8.04282270	     22.92747309	     11.42717722	     -5.83359590	     34.50927343	      0.60230044	     15.86012747
     17.15333333	     -2.37710508	      7.81615679	      6.36720488	      2.36471331	      0.93372895	      0.95995975	     -3.90147801	     -8.20750506	     -7.00489246	     67.37056250	      1.17583813	     -7.16171498	     22.68773229	     11.67772951	     -5.45172417	     37.04868076	      0.64662146	     18.40206690
     17.16000000	     -2.03462473	      7.97248352	      6.31780072	      2.36338333	      0.92927228	      0.95946675	     -2.47736262	     -8.94438030	     -6.78252929	     70.55493109	      1.23141585	     -6.20287710	     22.35577215	     11.87777410	     -5.09104471	     39.29712499	      0.68586422	     20.72894369
     17.16666667	     -1.74265414	      8.09373998	      6.17046224	      2.36190474	      0.92520051	      0.95906088	     -0.89965261	     -9.64833402	     -6.39487729	     73.57751199	      1.28416984	     -5.18051413	     21.92762006	     12.01720212	     -4.78873388	     41.21153683	      0.71927701	     22.82109385
     17.17333333	     -1.49824734	      8.18551149	      5.94133216	      2.36033061	      0.92155987	      0.95875139	      0.81660321	    -10.29648354	     -5.85030148	     76.40494414	      1.33351784	     -4.10536253	     21.39252581	     12.08499967	     -4.58363909	     42.78294917	      0.74670333	     24.63588546
     17.18000000	     -1.09482032	      8.28476512	      5.65687429	      2.35877062	      0.91866522	      0.95851861	      2.37711968	    -10.91423892	     -5.26043830	     78.94106647	      1.37778152	     -3.02696564	     20.47468375	     12.14395094	     -4.37698437	     43.94132735	      0.76692084	     26.32546865
     17.18666667	     -1.21074591	      8.25534981	      5.31965096	      2.35697056	      0.91567628	      0.95846204	      4.67986940	    -11.32987156	     -4.40029282	     81.37823366	      1.42031812	     -1.95453614	     20.04344550	     12.01077384	     -4.41261260	     44.88289678	      0.78335433	     27.58085228
     17.19333333	     -1.12437255	      8.25408231	      5.00045489	      2.35524634	      0.91351932	      0.95841552	      6.72477945	    -11.69546117	     -3.56992042	     83.47004674	      1.45682714	     -0.97608529	     19.17210720	     11.91455987	     -4.38229701	     45.42739164	      0.79285755	     28.72217329
     17.20000000	     -1.15692319	      8.18381692	      4.69375301	      2.35351152	      0.91176825	      0.95844236	      8.90819440	    -11.95137138	     -2.77610239	     85.27910857	      1.48840123	     -0.04070277	     18.28607363	     11.74757815	     -4.35531173	     45.69060876	      0.79745156	     29.68363740
     17.20666667	     -1.09336204	      8.12524858	      4.47334341	      2.35187012	      0.91065612	      0.95842338	     10.91552910	    -12.16152422	     -2.08554146	     86.76024945	      1.51425201	      0.80332751	     17.11665200	     11.61740111	     -4.25669413	     45.65173731	      0.79677313	     30.52434905
     17.21333333	     -0.96261180	      7.89698946	      4.45261245	      2.35028851	      0.91024003	      0.95827135	     12.70491179	    -12.12209159	     -1.64470096	     87.83416475	      1.53299537	      1.60775355	     15.74014613	     11.39930457	     -3.81319452	     45.39631773	      0.79231521	     31.06495718
     17.22000000	     -1.44752662	      7.87377024	      4.22209208	      2.34874491	      0.90945695	      0.95830960	     15.33399334	    -12.30686768	     -0.86008442	     88.85319993	      1.55078089	      2.21292102	     14.94608147	     11.29196196	     -3.96088092	     44.91064523	      0.78383863	     31.54051603
     17.22666667	     -1.51006874	      7.58255804	      4.38441853	      2.34737550	      0.90980611	      0.95801417	     17.17178323	    -12.19573486	     -0.67861030	     89.32886189	      1.55908276	      2.80687889	     13.56849109	     11.02085689	     -3.48580717	     44.28312043	      0.77288625	     31.86021784
     17.23333333	     -1.86006827	      7.44961255	      4.43967214	      2.34604848	      0.91017203	      0.95770609	     19.35837962	    -12.29408118	     -0.37208164	     89.64021737	      1.56451694	      3.32588938	     12.41879935	     10.94718606	     -3.13697905	     43.45057214	      0.75835555	     32.05266360
